<svg xmlns="http://www.w3.org/2000/svg" width="40.914" height="48" viewBox="0 0 40.914 48">
  <g>
    <path d="M32.348,35.063a19.509,19.509,0,0,0-4.412.635,25.566,25.566,0,0,1-1.192-5.225,4.269,4.269,0,0,0,1.837.475c.04,0,.08,0,.12,0h.035c2.895-.135,6.344-2.088,6.344-10.635a6.706,6.706,0,0,0-3.39-5.8c-2.072-1.254-4.6-1.5-6.22-.647a14.12,14.12,0,0,1-9.945.036,6.726,6.726,0,0,0-6.3.611,6.707,6.707,0,0,0-3.391,5.8c0,8.547,3.45,10.5,6.345,10.635h0c.052,0,.1,0,.155,0a4.215,4.215,0,0,0,1.753-.432,26,26,0,0,1-1.177,5.164,19.363,19.363,0,0,0-4.343-.617C3.839,35.063,0,41.409,0,45.549a1.915,1.915,0,0,0,.958,1.656,8.584,8.584,0,0,0,4.31.8,54.2,54.2,0,0,0,15.4-2.777c3.611,1.469,15.769,3.277,19.174,1.111a2.052,2.052,0,0,0,1.07-1.777C40.917,40.283,36.963,35.063,32.348,35.063Zm-20-5.571-.094,0h0c-3.289-.152-4.957-3.242-4.957-9.182a5.27,5.27,0,0,1,2.688-4.559,5.368,5.368,0,0,1,4.95-.531l.094.037a15.567,15.567,0,0,0,11.042-.072,5.339,5.339,0,0,1,4.871.566,5.271,5.271,0,0,1,2.688,4.559c0,5.939-1.667,9.027-4.954,9.182l-.1,0c-2.762,0-6.322-5.539-7.472-7.7-.011-.021-.031-.033-.044-.053a.64.64,0,0,0-.091-.111.841.841,0,0,0-.113-.094c-.019-.012-.1-.053-.117-.063a.722.722,0,0,0-.146-.043.693.693,0,0,0-.128-.012.578.578,0,0,0-.143.014.638.638,0,0,0-.135.041c-.022.01-.1.051-.122.064a.636.636,0,0,0-.11.09.717.717,0,0,0-.093.113c-.013.02-.032.031-.043.053C18.666,23.953,15.106,29.492,12.345,29.492Zm14.183,6.59a22.18,22.18,0,0,0-4.508,1.852,3.135,3.135,0,0,1-3.122,0,22.212,22.212,0,0,0-4.574-1.873,27.623,27.623,0,0,0,1.345-6.545,23.335,23.335,0,0,0,4.791-5.908,23.518,23.518,0,0,0,4.71,5.844A27.587,27.587,0,0,0,26.528,36.082Zm12.538,9.024c-2.393,1.523-11.619.533-16.193-.7a15.4,15.4,0,0,1,3.583-.727.728.728,0,0,0-.021-1.455h-.019a18.153,18.153,0,0,0-5.737,1.42,18.158,18.158,0,0,0-5.737-1.42h-.019a.728.728,0,0,0-.021,1.455,15.517,15.517,0,0,1,3.617.738c-4.751,1.414-14.474,3.053-16.766,1.564-.3-.191-.3-.35-.3-.436,0-3.484,3.256-9.031,7.114-9.031a23.2,23.2,0,0,1,9.6,2.676,4.6,4.6,0,0,0,4.576,0,22.849,22.849,0,0,1,9.6-2.676c3.765,0,7.113,4.5,7.113,8.039C39.462,44.647,39.462,44.854,39.066,45.106Z" fill="#4a3c31"/>
    <path d="M14.468,18.7a.728.728,0,0,0-1.38.465,24.072,24.072,0,0,1,1.193,6.248.727.727,0,0,0,.726.684h.044a.728.728,0,0,0,.684-.77A25.525,25.525,0,0,0,14.468,18.7Z" fill="#4a3c31"/>
    <path d="M25.793,26.106a.324.324,0,0,0,.044,0,.729.729,0,0,0,.726-.686,24.049,24.049,0,0,1,1.193-6.256.728.728,0,0,0-1.379-.465,25.527,25.527,0,0,0-1.268,6.635A.728.728,0,0,0,25.793,26.106Z" fill="#4a3c31"/>
    <path d="M20.51,12.909c3.377,0,5.9-3.993,5.9-7.563,0-3.4-2.15-5.346-5.9-5.346s-5.9,1.948-5.9,5.346C14.609,8.916,17.133,12.909,20.51,12.909Zm0-11.454c2.95,0,4.445,1.309,4.445,3.891,0,3.14-2.161,6.108-4.445,6.108s-4.446-2.969-4.446-6.108C16.064,2.763,17.56,1.455,20.51,1.455Z" fill="#4a3c31"/>
  </g>
</svg>
