<?xml version="1.0" encoding="utf-8"?>
<!-- Generator: Adobe Illustrator 27.2.0, SVG Export Plug-In . SVG Version: 6.00 Build 0)  -->
<svg version="1.1" id="Layer_1" xmlns="http://www.w3.org/2000/svg" xmlns:xlink="http://www.w3.org/1999/xlink" x="0px" y="0px"
	 viewBox="0 0 512 512" style="enable-background:new 0 0 512 512;" xml:space="preserve">
<style type="text/css">
	.st0{fill:#9b7030;}
</style>
<g>
	<path class="st0" d="M140.76,371.1c21.2,0,38.38,17.18,38.38,38.38s-17.18,38.38-38.38,38.38c-21.2,0-38.38-17.18-38.38-38.38
		S119.56,371.1,140.76,371.1z M243.16,383.89H486.4c14.14,0,25.6,11.46,25.6,25.6c0,13.13-9.88,23.95-22.61,25.42l-2.98,0.17H243.16
		c-14.13,0-25.6-11.46-25.6-25.6c0-13.13,9.88-23.94,22.61-25.42L243.16,383.89H486.4H243.16z M38.38,217.53
		c21.2,0,38.38,17.18,38.38,38.38s-17.18,38.38-38.38,38.38C17.18,294.29,0,277.1,0,255.91S17.18,217.53,38.38,217.53z
		 M140.78,230.31H486.4c14.14,0,25.6,11.46,25.6,25.6c0,13.13-9.88,23.95-22.61,25.42l-2.98,0.17H140.78
		c-14.14,0-25.6-11.46-25.6-25.6c0-13.13,9.88-23.94,22.61-25.42L140.78,230.31H486.4H140.78z M38.38,64.14
		c21.2,0,38.38,17.18,38.38,38.38S59.57,140.9,38.38,140.9C17.18,140.9,0,123.72,0,102.52S17.18,64.14,38.38,64.14z M140.78,76.76
		H486.4c14.14,0,25.6,11.46,25.6,25.6c0,13.13-9.88,23.95-22.61,25.42l-2.98,0.17H140.78c-14.14,0-25.6-11.46-25.6-25.6
		c0-13.13,9.88-23.94,22.61-25.42L140.78,76.76H486.4H140.78z"/>
</g>
</svg>
